<svg version="1.1" xmlns="http://www.w3.org/2000/svg" x="0px" y="0px" viewBox="0 0 19 19" enable-background="new 0 0 19 19" width="19" height="19"><path fill="#FFFFFF" fill-rule="evenodd" clip-rule="evenodd" d="M15.7,4.4c0,0.6-0.5,1.1-1.1,1.1S13.5,5,13.5,4.4 s0.5-1.1,1.1-1.1S15.7,3.8,15.7,4.4 M9.5,4.6c-2.7,0-4.9,2.2-4.9,4.9s2.2,4.9,4.9,4.9s4.9-2.2,4.9-4.9S12.2,4.6,9.5,4.6 M9.5,12.7 c-1.7,0-3.2-1.4-3.2-3.2s1.4-3.2,3.2-3.2s3.2,1.4,3.2,3.2S11.2,12.7,9.5,12.7 M9.5,1.7c2.5,0,2.8,0,3.8,0.1c0.9,0,1.4,0.2,1.8,0.3 c0.4,0.2,0.8,0.4,1.1,0.7c0.3,0.3,0.5,0.7,0.7,1.1c0.1,0.3,0.3,0.8,0.3,1.8s0.1,1.3,0.1,3.9c0,2.5,0,2.8-0.1,3.8 c0,0.9-0.2,1.4-0.3,1.8c-0.2,0.4-0.4,0.8-0.7,1.1c-0.3,0.3-0.6,0.5-1.1,0.7c-0.3,0.1-0.8,0.3-1.8,0.3s-1.3,0.1-3.8,0.1 s-2.8,0-3.8-0.1c-0.9,0-1.4-0.2-1.8-0.3c-0.4-0.2-0.8-0.4-1.1-0.7c-0.3-0.3-0.5-0.7-0.7-1.1c-0.1-0.3-0.3-0.8-0.3-1.8 s-0.1-1.3-0.1-3.8s0-2.8,0.1-3.9c0-0.9,0.2-1.4,0.3-1.8c0.2-0.4,0.4-0.8,0.7-1.1c0.3-0.3,0.6-0.5,1.1-0.7C4.2,2,4.7,1.8,5.7,1.8 C6.7,1.7,7,1.7,9.5,1.7 M9.5,0C6.9,0,6.6,0,5.6,0.1c-1,0-1.7,0.2-2.3,0.4C2.7,0.7,2.1,1.1,1.6,1.6S0.7,2.7,0.5,3.3 C0.3,3.9,0.1,4.6,0.1,5.6C0,6.6,0,6.9,0,9.5s0,2.9,0.1,3.9c0,1,0.2,1.7,0.4,2.3s0.6,1.2,1.1,1.7s1.1,0.9,1.7,1.1 c0.6,0.2,1.3,0.4,2.3,0.4S6.9,19,9.5,19s2.9,0,3.9-0.1c1,0,1.7-0.2,2.3-0.4c0.6-0.2,1.2-0.6,1.7-1.1s0.9-1.1,1.1-1.7 s0.4-1.3,0.4-2.3S19,12.1,19,9.5s0-2.9-0.1-3.9c0-1-0.2-1.7-0.4-2.3c-0.2-0.6-0.6-1.2-1.1-1.7s-1.1-0.9-1.7-1.1 c-0.6-0.2-1.3-0.4-2.3-0.4C12.4,0,12.1,0,9.5,0"></path></svg>