<svg version="1.1" xmlns="http://www.w3.org/2000/svg" x="0px" y="0px" viewBox="0 0 19 19" enable-background="new 0 0 19 19" width="19" height="19"><path fill="#FFFFFF" fill-rule="evenodd" clip-rule="evenodd" d="M16,15.9V11c0-2.6-1.4-3.8-3.3-3.8c-1.5,0-2.1,0.9-2.5,1.5 V7.4H7.4c0,0,0,0.9,0,8.6h2.8v-4.9c0-0.2,0-0.5,0.1-0.7c0.1-0.5,0.6-1,1.5-1c1,0,1.5,0.7,1.5,2v4.6H16z M5.8,15.9V7.3H3v8.6H5.8z M4.4,3.2c-1,0-1.6,0.6-1.6,1.5C2.7,5.6,3.3,6.2,4.3,6.2s1.6-0.6,1.6-1.5C5.9,3.8,5.3,3.2,4.4,3.2z M19,15.4c0,2-1.6,3.6-3.6,3.6 H3.6c-2,0-3.6-1.6-3.6-3.6V3.6C0,1.6,1.6,0,3.6,0h11.8c2,0,3.6,1.6,3.6,3.6V15.4z"></path></svg>