<svg width="152" height="72" viewBox="0 0 152 72" fill="none" xmlns="http://www.w3.org/2000/svg">
<g clip-path="url(#clip0_2_7)">
<path fill-rule="evenodd" clip-rule="evenodd" d="M30.6238 0.320801H47.368L46.8031 3.78574H40.5183V20.4562H36.9074V3.78574H30.6238V0.320801Z" fill="white"/>
<path fill-rule="evenodd" clip-rule="evenodd" d="M24.4493 9.53907L21.4128 7.64117C20.3426 6.97601 19.8442 6.30896 19.8442 5.54246C19.8442 4.24278 20.92 3.43544 22.6519 3.43544C24.0844 3.43544 25.7467 4.00833 26.886 4.8947L27.114 5.07205V1.07582L27.0361 1.03649C26.0904 0.563814 24.5722 0 22.7102 0C17.7629 0 16 2.92344 16 5.65893C16 7.99246 16.99 9.56554 19.308 10.9178L22.4027 12.8153C23.6283 13.5674 24.1747 14.2776 24.1747 15.1186C24.1747 16.4689 23.0271 17.3421 21.2505 17.3421C19.3099 17.3421 17.4903 16.4311 16.5218 15.6506L16.2919 15.4657V19.586L16.3713 19.6246C17.2539 20.0553 19.0804 20.7775 21.3965 20.7775C24.6928 20.7775 28.0189 18.9734 28.0189 14.9431C28.0189 12.6504 26.9507 11.0343 24.4493 9.53907Z" fill="white"/>
<path fill-rule="evenodd" clip-rule="evenodd" d="M62.6309 3.7858L62.0659 0.320862H50.8638V20.4563H62.3484L62.9133 16.9917H54.4747V11.4228H60.2898V7.95825H54.4747V3.7858H62.6309Z" fill="white"/>
<path fill-rule="evenodd" clip-rule="evenodd" d="M99.0299 3.7858L98.465 0.320862H87.2628V20.4563H98.7474L99.3124 16.9917H90.8737V11.4228H96.6888V7.95825H90.8737V3.7858H99.0299Z" fill="white"/>
<path fill-rule="evenodd" clip-rule="evenodd" d="M74.7164 16.0026L70.1261 0.320984H66.1144L72.7504 20.4564H76.654L83.2897 0.320984H79.278L74.7164 16.0026Z" fill="white"/>
<path fill-rule="evenodd" clip-rule="evenodd" d="M132.43 9.53907L129.394 7.64117C128.324 6.97601 127.825 6.30896 127.825 5.54246C127.825 4.24278 128.901 3.43544 130.633 3.43544C132.065 3.43544 133.728 4.00833 134.867 4.8947L135.095 5.07205V1.07582L135.017 1.03649C134.071 0.563814 132.553 0 130.691 0C125.743 0 123.981 2.92344 123.981 5.65893C123.981 7.99246 124.971 9.56554 127.289 10.9178L130.384 12.8157C131.609 13.5674 132.156 14.2776 132.156 15.1186C132.156 16.4689 131.008 17.3421 129.231 17.3421C127.291 17.3421 125.471 16.4311 124.503 15.6506L124.273 15.4657V19.586L124.352 19.6246C125.235 20.0553 127.061 20.7775 129.377 20.7775C132.674 20.7775 136 18.9734 136 14.9431C136 12.6504 134.932 11.0343 132.43 9.53907Z" fill="white"/>
<path fill-rule="evenodd" clip-rule="evenodd" d="M115.813 0.320801V13.6164L108.05 0.320801H103.285L104.913 2.86798V20.4562H108.524V7.90335L115.883 20.4562H119.424V0.320801H115.813Z" fill="white"/>
<path fill-rule="evenodd" clip-rule="evenodd" d="M16.2919 31.4375H17.2997V26.3215H16.2919V31.4375Z" fill="#E4E5E6"/>
<path fill-rule="evenodd" clip-rule="evenodd" d="M22.8857 31.4375H23.8935V26.3216H22.8857V29.6905L20.5438 26.3216H19.344V26.3889L19.6991 26.955V31.4375H20.7068V28.3757L22.8857 31.4375Z" fill="#E4E5E6"/>
<path fill-rule="evenodd" clip-rule="evenodd" d="M28.8362 26.4656C28.5291 26.3314 28.1355 26.2255 27.7418 26.2255C26.4365 26.2255 25.9854 26.9935 25.9854 27.6942C25.9854 28.2702 26.1869 28.6925 26.8589 29.0669L27.6269 29.5468C27.8765 29.7003 28.0107 29.8826 28.0107 30.0747C28.0107 30.353 27.7804 30.5833 27.3387 30.5833C26.8494 30.5833 26.3597 30.3624 26.0912 30.1416V31.2647C26.4077 31.3989 26.8687 31.5335 27.3773 31.5335C28.5484 31.5335 29.0858 30.8136 29.0858 30.0168C29.0858 29.4507 28.8456 28.9898 28.1642 28.6158L27.3868 28.1548C27.1758 28.0206 27.0702 27.8765 27.0702 27.675C27.0702 27.4061 27.2813 27.1758 27.6942 27.1758C28.126 27.1758 28.5772 27.3581 28.8362 27.5502V26.4656Z" fill="#E4E5E6"/>
<path fill-rule="evenodd" clip-rule="evenodd" d="M31.9169 31.4375H32.9247V27.2912H34.182L34.3401 26.3216H30.6596V27.2912H31.9169V31.4375Z" fill="#E4E5E6"/>
<path fill-rule="evenodd" clip-rule="evenodd" d="M36.0821 31.4375H37.0898V26.3215H36.0821V31.4375Z" fill="#E4E5E6"/>
<path fill-rule="evenodd" clip-rule="evenodd" d="M47.2347 26.3217V29.6138C47.2347 30.161 46.8797 30.5546 46.3037 30.5546C45.7373 30.5546 45.3727 30.161 45.3727 29.6138V26.3217H44.365V29.537C44.365 30.7849 45.1133 31.5336 46.3037 31.5336C47.4938 31.5336 48.2425 30.7849 48.2425 29.537V26.3217H47.2347Z" fill="#E4E5E6"/>
<path fill-rule="evenodd" clip-rule="evenodd" d="M58.4061 31.4375L58.5642 30.4679H56.5154V29.2341H57.9663V28.2645H56.5154V27.2912H58.5642L58.4061 26.3216H55.5076V31.4375H58.4061Z" fill="#E4E5E6"/>
<path fill-rule="evenodd" clip-rule="evenodd" d="M65.8878 30.5161C64.9757 30.5161 64.275 29.7961 64.275 28.8844C64.275 27.9629 64.9757 27.2433 65.8878 27.2433C66.809 27.2433 67.5002 27.9629 67.5002 28.8844C67.5002 29.7961 66.809 30.5161 65.8878 30.5161ZM65.8878 26.2257C64.3809 26.2257 63.2389 27.3677 63.2389 28.8844C63.2389 30.3913 64.3809 31.5333 65.8878 31.5333C67.3947 31.5333 68.5465 30.3913 68.5465 28.8844C68.5465 27.3677 67.3947 26.2257 65.8878 26.2257Z" fill="#E4E5E6"/>
<path fill-rule="evenodd" clip-rule="evenodd" d="M73.4664 29.2339V28.2644H71.7293V27.291H73.62L73.778 26.3215H70.7215V31.4374H71.7293V29.2339H73.4664Z" fill="#E4E5E6"/>
<path fill-rule="evenodd" clip-rule="evenodd" d="M92.5691 30.1033C92.3002 30.3434 91.8684 30.5159 91.3692 30.5159C90.4481 30.5159 89.7663 29.7963 89.7663 28.8842C89.7663 27.963 90.4575 27.243 91.3692 27.243C91.8684 27.243 92.2908 27.4064 92.5691 27.6654V26.5041C92.2333 26.3215 91.8109 26.2258 91.3791 26.2258C89.8722 26.2258 88.7298 27.3678 88.7298 28.8842C88.7298 30.3915 89.8722 31.5335 91.3791 31.5335C91.8109 31.5335 92.2333 31.428 92.5691 31.2552V30.1033Z" fill="#E4E5E6"/>
<path fill-rule="evenodd" clip-rule="evenodd" d="M98.0973 31.4375H99.1051V26.3216H98.0973V28.3757H95.6689V26.3216H94.6611V31.4375H95.6689V29.3452H98.0973V31.4375Z" fill="#E4E5E6"/>
<path fill-rule="evenodd" clip-rule="evenodd" d="M101.097 26.3217L101.495 26.955V31.4376H102.502V28.3757L104.681 31.4376H105.689V26.3217H104.681V29.6905L102.339 26.3217H101.097Z" fill="#E4E5E6"/>
<path fill-rule="evenodd" clip-rule="evenodd" d="M110.052 30.5161C109.14 30.5161 108.439 29.7961 108.439 28.8844C108.439 27.9629 109.14 27.2433 110.052 27.2433C110.973 27.2433 111.664 27.9629 111.664 28.8844C111.664 29.7961 110.973 30.5161 110.052 30.5161ZM110.052 26.2257C108.545 26.2257 107.403 27.3677 107.403 28.8844C107.403 30.3913 108.545 31.5333 110.052 31.5333C111.559 31.5333 112.71 30.3913 112.71 28.8844C112.71 27.3677 111.559 26.2257 110.052 26.2257Z" fill="#E4E5E6"/>
<path fill-rule="evenodd" clip-rule="evenodd" d="M117.323 31.4375L117.481 30.4679H115.432V26.3216H114.424V31.4375H117.323Z" fill="#E4E5E6"/>
<path fill-rule="evenodd" clip-rule="evenodd" d="M121.421 30.5161C120.509 30.5161 119.808 29.7961 119.808 28.8844C119.808 27.9629 120.509 27.2433 121.421 27.2433C122.342 27.2433 123.033 27.9629 123.033 28.8844C123.033 29.7961 122.342 30.5161 121.421 30.5161ZM121.421 26.2257C119.914 26.2257 118.772 27.3677 118.772 28.8844C118.772 30.3913 119.914 31.5333 121.421 31.5333C122.928 31.5333 124.079 30.3913 124.079 28.8844C124.079 27.3677 122.928 26.2257 121.421 26.2257Z" fill="#E4E5E6"/>
<path fill-rule="evenodd" clip-rule="evenodd" d="M133.198 31.4375H134.206V29.6814L136 26.3216H134.867L133.697 28.6737L132.536 26.3216H131.394L133.198 29.6716V31.4375Z" fill="#E4E5E6"/>
<path fill-rule="evenodd" clip-rule="evenodd" d="M130.254 30.9476V28.7559H128.323L128.322 29.6823H129.217L129.218 30.3698C129.063 30.459 128.826 30.5037 128.507 30.5037C128.173 30.5037 127.876 30.4401 127.615 30.3134C127.355 30.1864 127.151 30.0045 127.005 29.767C126.86 29.5299 126.787 29.2516 126.787 28.9321C126.787 28.3777 126.936 27.9595 127.235 27.6774C127.533 27.3957 127.964 27.2546 128.528 27.2546C128.687 27.2546 128.886 27.2864 129.123 27.3496C129.361 27.4131 129.547 27.4827 129.683 27.5575L130.015 26.6061C129.803 26.4934 129.559 26.4019 129.282 26.3316C129.005 26.2609 128.709 26.2257 128.394 26.2257C127.905 26.2257 127.459 26.3305 127.055 26.5392C126.651 26.7483 126.329 27.0633 126.089 27.4838C125.849 27.9043 125.73 28.4174 125.73 29.0236C125.73 29.5076 125.843 29.9387 126.068 30.3169C126.294 30.695 126.614 30.9911 127.03 31.2047C127.446 31.4188 127.929 31.5254 128.478 31.5254C128.68 31.5254 128.905 31.4959 129.151 31.4373C129.398 31.3787 129.624 31.3034 129.828 31.2119C130.033 31.1204 130.174 31.0323 130.254 30.9476Z" fill="#E4E5E6"/>
<path fill-rule="evenodd" clip-rule="evenodd" d="M40.2571 31.4375H41.2649V27.2912H42.5222L42.6803 26.3216H38.9998V27.2912H40.2571V31.4375Z" fill="#E4E5E6"/>
<path fill-rule="evenodd" clip-rule="evenodd" d="M51.3422 31.4375H52.35V27.2912H53.6073L53.7654 26.3216H50.0849V27.2912H51.3422V31.4375Z" fill="#E4E5E6"/>
<path fill-rule="evenodd" clip-rule="evenodd" d="M79.7099 31.4375H80.7177V27.2912H81.975L82.1331 26.3216H78.4526V27.2912H79.7099V31.4375Z" fill="#E4E5E6"/>
<path fill-rule="evenodd" clip-rule="evenodd" d="M86.9447 31.4375L87.1028 30.4679H85.054V29.2341H86.505V28.2645H85.054V27.2912H87.1028L86.9447 26.3216H84.0463V31.4375H86.9447Z" fill="#E4E5E6"/>
</g>
<line x1="16" y1="35.5" x2="136" y2="35.5" stroke="white"/>
<path d="M10.9399 54.144C10.4479 54.144 9.90791 54.12 9.31991 54.072C8.73191 54.024 8.22191 53.958 7.78991 53.874V52.128C8.80991 52.236 9.66791 52.29 10.3639 52.29C11.2039 52.29 11.7379 52.158 11.9659 51.894C12.0859 51.774 12.1639 51.612 12.1999 51.408C12.2359 51.192 12.2539 50.904 12.2539 50.544C12.2539 50.04 12.2239 49.68 12.1639 49.464C12.1039 49.248 11.9839 49.092 11.8039 48.996C11.6359 48.888 11.3359 48.798 10.9039 48.726L9.12191 48.42C8.52191 48.324 8.10791 48.006 7.87991 47.466C7.66391 46.926 7.55591 46.146 7.55591 45.126C7.55591 44.166 7.69391 43.422 7.96991 42.894C8.24591 42.354 8.63591 41.982 9.13991 41.778C9.64391 41.574 10.2859 41.472 11.0659 41.472C11.5699 41.472 12.0799 41.508 12.5959 41.58C13.1239 41.64 13.5439 41.712 13.8559 41.796V43.506C13.2319 43.386 12.4999 43.326 11.6599 43.326C11.1799 43.326 10.8079 43.35 10.5439 43.398C10.2799 43.446 10.0819 43.53 9.94991 43.65C9.80591 43.77 9.70991 43.932 9.66191 44.136C9.62591 44.34 9.60791 44.646 9.60791 45.054C9.60791 45.486 9.63191 45.798 9.67991 45.99C9.72791 46.17 9.81191 46.302 9.93191 46.386C10.0639 46.47 10.2799 46.536 10.5799 46.584L12.2539 46.872C12.7219 46.944 13.0999 47.082 13.3879 47.286C13.6879 47.49 13.9159 47.832 14.0719 48.312C14.2279 48.804 14.3059 49.458 14.3059 50.274C14.3059 51.342 14.1799 52.158 13.9279 52.722C13.6759 53.274 13.3099 53.652 12.8299 53.856C12.3619 54.048 11.7319 54.144 10.9399 54.144ZM20.5588 53.874C19.9588 54.054 19.3048 54.144 18.5968 54.144C17.7208 54.144 17.0728 53.982 16.6528 53.658C16.2328 53.334 15.9568 52.848 15.8248 52.2C15.6928 51.552 15.6268 50.622 15.6268 49.41C15.6268 48.198 15.6988 47.262 15.8428 46.602C15.9988 45.942 16.2868 45.456 16.7068 45.144C17.1268 44.832 17.7508 44.676 18.5788 44.676C18.9388 44.676 19.2988 44.7 19.6588 44.748C20.0188 44.796 20.3008 44.862 20.5048 44.946V46.494C20.0008 46.398 19.5328 46.35 19.1008 46.35C18.6328 46.35 18.2968 46.422 18.0928 46.566C17.8888 46.698 17.7508 46.968 17.6788 47.376C17.6068 47.784 17.5708 48.462 17.5708 49.41C17.5708 50.358 17.6068 51.042 17.6788 51.462C17.7508 51.87 17.8888 52.14 18.0928 52.272C18.2968 52.404 18.6328 52.47 19.1008 52.47C19.5688 52.47 20.0548 52.422 20.5588 52.326V53.874ZM26.2971 48.942C26.2971 48.138 26.2731 47.574 26.2251 47.25C26.1771 46.926 26.0811 46.722 25.9371 46.638C25.7931 46.542 25.5411 46.494 25.1811 46.494C24.7971 46.494 24.5211 46.578 24.3531 46.746C24.1851 46.902 24.0771 47.154 24.0291 47.502C23.9931 47.85 23.9751 48.42 23.9751 49.212V54H22.0311V40.626H23.9751V45.9H24.0651C24.2211 45.48 24.4671 45.174 24.8031 44.982C25.1391 44.778 25.5711 44.676 26.0991 44.676C26.6871 44.676 27.1371 44.796 27.4491 45.036C27.7611 45.264 27.9711 45.612 28.0791 46.08C28.1871 46.536 28.2411 47.166 28.2411 47.97V54H26.2971V48.942ZM33.0691 54.144C32.0731 54.144 31.3531 54.012 30.9091 53.748C30.4651 53.484 30.1771 53.04 30.0451 52.416C29.9251 51.792 29.8651 50.79 29.8651 49.41C29.8651 48.018 29.9251 47.01 30.0451 46.386C30.1771 45.762 30.4651 45.324 30.9091 45.072C31.3531 44.808 32.0731 44.676 33.0691 44.676C34.0651 44.676 34.7851 44.808 35.2291 45.072C35.6731 45.324 35.9551 45.762 36.0751 46.386C36.2071 47.01 36.2731 48.018 36.2731 49.41C36.2731 50.79 36.2071 51.792 36.0751 52.416C35.9551 53.04 35.6731 53.484 35.2291 53.748C34.7851 54.012 34.0651 54.144 33.0691 54.144ZM33.0691 52.47C33.5011 52.47 33.7951 52.41 33.9511 52.29C34.1191 52.158 34.2211 51.9 34.2571 51.516C34.3051 51.132 34.3291 50.43 34.3291 49.41C34.3291 48.378 34.3051 47.676 34.2571 47.304C34.2211 46.92 34.1191 46.668 33.9511 46.548C33.7951 46.416 33.5011 46.35 33.0691 46.35C32.6371 46.35 32.3371 46.416 32.1691 46.548C32.0131 46.668 31.9111 46.92 31.8631 47.304C31.8271 47.676 31.8091 48.378 31.8091 49.41C31.8091 50.43 31.8271 51.132 31.8631 51.516C31.9111 51.9 32.0131 52.158 32.1691 52.29C32.3371 52.41 32.6371 52.47 33.0691 52.47ZM40.8914 54.144C39.8954 54.144 39.1754 54.012 38.7314 53.748C38.2874 53.484 37.9994 53.04 37.8674 52.416C37.7474 51.792 37.6874 50.79 37.6874 49.41C37.6874 48.018 37.7474 47.01 37.8674 46.386C37.9994 45.762 38.2874 45.324 38.7314 45.072C39.1754 44.808 39.8954 44.676 40.8914 44.676C41.8874 44.676 42.6074 44.808 43.0514 45.072C43.4954 45.324 43.7774 45.762 43.8974 46.386C44.0294 47.01 44.0954 48.018 44.0954 49.41C44.0954 50.79 44.0294 51.792 43.8974 52.416C43.7774 53.04 43.4954 53.484 43.0514 53.748C42.6074 54.012 41.8874 54.144 40.8914 54.144ZM40.8914 52.47C41.3234 52.47 41.6174 52.41 41.7734 52.29C41.9414 52.158 42.0434 51.9 42.0794 51.516C42.1274 51.132 42.1514 50.43 42.1514 49.41C42.1514 48.378 42.1274 47.676 42.0794 47.304C42.0434 46.92 41.9414 46.668 41.7734 46.548C41.6174 46.416 41.3234 46.35 40.8914 46.35C40.4594 46.35 40.1594 46.416 39.9914 46.548C39.8354 46.668 39.7334 46.92 39.6854 47.304C39.6494 47.676 39.6314 48.378 39.6314 49.41C39.6314 50.43 39.6494 51.132 39.6854 51.516C39.7334 51.9 39.8354 52.158 39.9914 52.29C40.1594 52.41 40.4594 52.47 40.8914 52.47ZM45.7616 54V40.626H47.7056V54H45.7616ZM55.9031 54.144C54.9071 54.144 54.1871 54.012 53.7431 53.748C53.2991 53.484 53.0111 53.04 52.8791 52.416C52.7591 51.792 52.6991 50.79 52.6991 49.41C52.6991 48.018 52.7591 47.01 52.8791 46.386C53.0111 45.762 53.2991 45.324 53.7431 45.072C54.1871 44.808 54.9071 44.676 55.9031 44.676C56.8991 44.676 57.6191 44.808 58.0631 45.072C58.5071 45.324 58.7891 45.762 58.9091 46.386C59.0411 47.01 59.1071 48.018 59.1071 49.41C59.1071 50.79 59.0411 51.792 58.9091 52.416C58.7891 53.04 58.5071 53.484 58.0631 53.748C57.6191 54.012 56.8991 54.144 55.9031 54.144ZM55.9031 52.47C56.3351 52.47 56.6291 52.41 56.7851 52.29C56.9531 52.158 57.0551 51.9 57.0911 51.516C57.1391 51.132 57.1631 50.43 57.1631 49.41C57.1631 48.378 57.1391 47.676 57.0911 47.304C57.0551 46.92 56.9531 46.668 56.7851 46.548C56.6291 46.416 56.3351 46.35 55.9031 46.35C55.4711 46.35 55.1711 46.416 55.0031 46.548C54.8471 46.668 54.7451 46.92 54.6971 47.304C54.6611 47.676 54.6431 48.378 54.6431 49.41C54.6431 50.43 54.6611 51.132 54.6971 51.516C54.7451 51.9 54.8471 52.158 55.0031 52.29C55.1711 52.41 55.4711 52.47 55.9031 52.47ZM61.3133 46.494H60.1253V44.82H61.3133V43.974C61.3133 42.918 61.4093 42.162 61.6013 41.706C61.7933 41.25 62.1173 40.956 62.5733 40.824C63.0413 40.692 63.7913 40.626 64.8233 40.626V42.138C64.3433 42.138 63.9953 42.168 63.7793 42.228C63.5753 42.288 63.4373 42.414 63.3653 42.606C63.2933 42.798 63.2573 43.11 63.2573 43.542V44.82H64.8233V46.494H63.2573V54H61.3133V46.494ZM74.7674 54V48.726H71.5994V54H69.5474V41.616H71.5994V46.8H74.7674V41.616H76.8194V54H74.7674ZM83.1281 52.848H83.0201C82.8641 53.304 82.6121 53.634 82.2641 53.838C81.9161 54.042 81.4721 54.144 80.9321 54.144C80.3321 54.144 79.8761 54.03 79.5641 53.802C79.2521 53.562 79.0421 53.208 78.9341 52.74C78.8381 52.26 78.7901 51.606 78.7901 50.778V44.82H80.7341V49.878C80.7341 50.694 80.7521 51.264 80.7881 51.588C80.8361 51.9 80.9321 52.104 81.0761 52.2C81.2201 52.284 81.4721 52.326 81.8321 52.326C82.2161 52.326 82.4921 52.248 82.6601 52.092C82.8281 51.936 82.9361 51.678 82.9841 51.318C83.0321 50.958 83.0561 50.388 83.0561 49.608V44.82H85.0001V54H83.2001L83.1281 52.848ZM95.174 48.942C95.174 48.126 95.15 47.562 95.102 47.25C95.066 46.926 94.982 46.722 94.85 46.638C94.718 46.542 94.478 46.494 94.13 46.494C93.77 46.494 93.506 46.572 93.338 46.728C93.182 46.884 93.08 47.142 93.032 47.502C92.996 47.85 92.978 48.42 92.978 49.212V54H91.034V48.942C91.034 48.126 91.01 47.562 90.962 47.25C90.926 46.926 90.842 46.722 90.71 46.638C90.578 46.542 90.338 46.494 89.99 46.494C89.63 46.494 89.372 46.572 89.216 46.728C89.06 46.884 88.958 47.142 88.91 47.502C88.874 47.85 88.856 48.42 88.856 49.212V54H86.912V44.82H88.694L88.766 45.972H88.874C89.042 45.516 89.288 45.186 89.612 44.982C89.936 44.778 90.374 44.676 90.926 44.676C91.514 44.676 91.952 44.778 92.24 44.982C92.54 45.186 92.744 45.516 92.852 45.972H92.96C93.116 45.516 93.362 45.186 93.698 44.982C94.034 44.778 94.484 44.676 95.048 44.676C95.612 44.676 96.038 44.79 96.326 45.018C96.626 45.246 96.83 45.594 96.938 46.062C97.058 46.518 97.118 47.148 97.118 47.952V54H95.174V48.942ZM100.68 54.144C99.9242 54.144 99.3782 53.928 99.0422 53.496C98.7182 53.064 98.5562 52.368 98.5562 51.408C98.5562 50.7 98.6282 50.142 98.7722 49.734C98.9162 49.326 99.1502 49.032 99.4742 48.852C99.8102 48.672 100.272 48.582 100.86 48.582C101.316 48.582 101.952 48.606 102.768 48.654V48.204C102.768 47.616 102.72 47.196 102.624 46.944C102.54 46.692 102.384 46.53 102.156 46.458C101.94 46.386 101.574 46.35 101.058 46.35C100.542 46.35 99.8522 46.398 98.9882 46.494V44.964C99.8282 44.772 100.704 44.676 101.616 44.676C102.48 44.676 103.128 44.79 103.56 45.018C104.004 45.246 104.304 45.618 104.46 46.134C104.628 46.638 104.712 47.364 104.712 48.312V54H102.912L102.84 52.866H102.732C102.444 53.718 101.76 54.144 100.68 54.144ZM101.526 52.38C101.754 52.38 101.946 52.356 102.102 52.308C102.258 52.26 102.396 52.164 102.516 52.02C102.684 51.792 102.768 51.288 102.768 50.508V50.022H101.418C101.154 50.022 100.956 50.052 100.824 50.112C100.704 50.172 100.614 50.286 100.554 50.454C100.506 50.622 100.482 50.88 100.482 51.228C100.482 51.696 100.548 52.008 100.68 52.164C100.812 52.308 101.094 52.38 101.526 52.38ZM110.848 48.942C110.848 48.138 110.824 47.574 110.776 47.25C110.728 46.926 110.632 46.722 110.488 46.638C110.344 46.542 110.092 46.494 109.732 46.494C109.348 46.494 109.072 46.578 108.904 46.746C108.736 46.902 108.628 47.154 108.58 47.502C108.544 47.85 108.526 48.42 108.526 49.212V54H106.582V44.82H108.364L108.436 45.972H108.544C108.7 45.516 108.952 45.186 109.3 44.982C109.648 44.778 110.098 44.676 110.65 44.676C111.25 44.676 111.7 44.796 112 45.036C112.312 45.264 112.522 45.618 112.63 46.098C112.738 46.566 112.792 47.214 112.792 48.042V54H110.848V48.942ZM114.65 42.606V40.626H116.63V42.606H114.65ZM114.668 54V44.82H116.612V54H114.668ZM119.057 54V46.494H117.851V44.82H119.057V42.156H121.001V44.82H122.477V46.494H121.001V54H119.057ZM123.738 42.606V40.626H125.718V42.606H123.738ZM123.756 54V44.82H125.7V54H123.756ZM133.563 50.076H129.297C129.297 50.856 129.333 51.402 129.405 51.714C129.477 52.014 129.633 52.218 129.873 52.326C130.113 52.422 130.533 52.47 131.133 52.47C131.709 52.47 132.447 52.422 133.347 52.326V53.856C133.047 53.94 132.645 54.006 132.141 54.054C131.649 54.114 131.169 54.144 130.701 54.144C129.693 54.144 128.949 53.994 128.469 53.694C128.001 53.382 127.695 52.914 127.551 52.29C127.419 51.654 127.353 50.7 127.353 49.428C127.353 48.168 127.419 47.22 127.551 46.584C127.683 45.948 127.977 45.474 128.433 45.162C128.889 44.838 129.603 44.676 130.575 44.676C131.535 44.676 132.219 44.832 132.627 45.144C133.047 45.444 133.305 45.9 133.401 46.512C133.509 47.112 133.563 48.078 133.563 49.41V50.076ZM130.539 46.35C130.167 46.35 129.897 46.404 129.729 46.512C129.561 46.62 129.447 46.824 129.387 47.124C129.339 47.424 129.309 47.928 129.297 48.636H131.709V48.618C131.709 47.922 131.679 47.418 131.619 47.106C131.559 46.794 131.451 46.59 131.295 46.494C131.139 46.398 130.887 46.35 130.539 46.35ZM137.664 54.144C137.268 54.144 136.824 54.12 136.332 54.072C135.852 54.024 135.432 53.964 135.072 53.892V52.326C135.936 52.422 136.662 52.47 137.25 52.47C137.622 52.47 137.898 52.44 138.078 52.38C138.258 52.308 138.378 52.2 138.438 52.056C138.498 51.912 138.528 51.696 138.528 51.408C138.528 51.072 138.51 50.838 138.474 50.706C138.438 50.562 138.372 50.466 138.276 50.418C138.18 50.358 138.012 50.31 137.772 50.274L136.17 50.04C135.678 49.968 135.336 49.74 135.144 49.356C134.952 48.972 134.856 48.33 134.856 47.43C134.856 46.398 135.102 45.684 135.594 45.288C136.086 44.88 136.812 44.676 137.772 44.676C138.168 44.676 138.576 44.706 138.996 44.766C139.428 44.814 139.776 44.88 140.04 44.964V46.512C139.368 46.404 138.696 46.35 138.024 46.35C137.556 46.35 137.232 46.422 137.052 46.566C136.884 46.698 136.8 46.974 136.8 47.394C136.8 47.694 136.812 47.91 136.836 48.042C136.872 48.174 136.932 48.27 137.016 48.33C137.112 48.378 137.268 48.414 137.484 48.438L138.852 48.618C139.2 48.666 139.488 48.762 139.716 48.906C139.944 49.05 140.124 49.308 140.256 49.68C140.388 50.052 140.454 50.58 140.454 51.264C140.454 52.356 140.226 53.112 139.77 53.532C139.326 53.94 138.624 54.144 137.664 54.144ZM141.787 55.584C142.063 55.584 142.267 55.548 142.399 55.476C142.531 55.404 142.621 55.278 142.669 55.098C142.717 54.918 142.741 54.648 142.741 54.288V54H141.949V51.876H144.127V53.46C144.127 54.336 144.073 54.978 143.965 55.386C143.869 55.806 143.659 56.1 143.335 56.268C143.011 56.448 142.495 56.538 141.787 56.538V55.584ZM6.71245 70L6.11845 67.192H2.95045L2.37445 70H0.304445L3.07645 57.616H6.04645L8.81845 70H6.71245ZM4.58845 59.65H4.48045L3.32845 65.356H5.72245L4.58845 59.65ZM9.97255 60.82H11.7546L11.8266 62.386H11.9526C12.1326 61.738 12.3966 61.294 12.7446 61.054C13.1046 60.802 13.5726 60.676 14.1486 60.676V62.746C13.5966 62.746 13.1586 62.842 12.8346 63.034C12.5106 63.226 12.2766 63.538 12.1326 63.97C11.9886 64.402 11.9166 65.002 11.9166 65.77V70H9.97255V60.82ZM16.2782 70V62.494H15.0722V60.82H16.2782V58.156H18.2222V60.82H19.6982V62.494H18.2222V70H16.2782ZM23.3885 70.144C22.9925 70.144 22.5485 70.12 22.0565 70.072C21.5765 70.024 21.1565 69.964 20.7965 69.892V68.326C21.6605 68.422 22.3865 68.47 22.9745 68.47C23.3465 68.47 23.6225 68.44 23.8025 68.38C23.9825 68.308 24.1025 68.2 24.1625 68.056C24.2225 67.912 24.2525 67.696 24.2525 67.408C24.2525 67.072 24.2345 66.838 24.1985 66.706C24.1625 66.562 24.0965 66.466 24.0005 66.418C23.9045 66.358 23.7365 66.31 23.4965 66.274L21.8945 66.04C21.4025 65.968 21.0605 65.74 20.8685 65.356C20.6765 64.972 20.5805 64.33 20.5805 63.43C20.5805 62.398 20.8265 61.684 21.3185 61.288C21.8105 60.88 22.5365 60.676 23.4965 60.676C23.8925 60.676 24.3005 60.706 24.7205 60.766C25.1525 60.814 25.5005 60.88 25.7645 60.964V62.512C25.0925 62.404 24.4205 62.35 23.7485 62.35C23.2805 62.35 22.9565 62.422 22.7765 62.566C22.6085 62.698 22.5245 62.974 22.5245 63.394C22.5245 63.694 22.5365 63.91 22.5605 64.042C22.5965 64.174 22.6565 64.27 22.7405 64.33C22.8365 64.378 22.9925 64.414 23.2085 64.438L24.5765 64.618C24.9245 64.666 25.2125 64.762 25.4405 64.906C25.6685 65.05 25.8485 65.308 25.9805 65.68C26.1125 66.052 26.1785 66.58 26.1785 67.264C26.1785 68.356 25.9505 69.112 25.4945 69.532C25.0505 69.94 24.3485 70.144 23.3885 70.144ZM32.7231 70.144C31.9671 70.144 31.4211 69.928 31.0851 69.496C30.7611 69.064 30.5991 68.368 30.5991 67.408C30.5991 66.7 30.6711 66.142 30.8151 65.734C30.9591 65.326 31.1931 65.032 31.5171 64.852C31.8531 64.672 32.3151 64.582 32.9031 64.582C33.3591 64.582 33.9951 64.606 34.8111 64.654V64.204C34.8111 63.616 34.7631 63.196 34.6671 62.944C34.5831 62.692 34.4271 62.53 34.1991 62.458C33.9831 62.386 33.6171 62.35 33.1011 62.35C32.5851 62.35 31.8951 62.398 31.0311 62.494V60.964C31.8711 60.772 32.7471 60.676 33.6591 60.676C34.5231 60.676 35.1711 60.79 35.6031 61.018C36.0471 61.246 36.3471 61.618 36.5031 62.134C36.6711 62.638 36.7551 63.364 36.7551 64.312V70H34.9551L34.8831 68.866H34.7751C34.4871 69.718 33.8031 70.144 32.7231 70.144ZM33.5691 68.38C33.7971 68.38 33.9891 68.356 34.1451 68.308C34.3011 68.26 34.4391 68.164 34.5591 68.02C34.7271 67.792 34.8111 67.288 34.8111 66.508V66.022H33.4611C33.1971 66.022 32.9991 66.052 32.8671 66.112C32.7471 66.172 32.6571 66.286 32.5971 66.454C32.5491 66.622 32.5251 66.88 32.5251 67.228C32.5251 67.696 32.5911 68.008 32.7231 68.164C32.8551 68.308 33.1371 68.38 33.5691 68.38ZM42.8909 64.942C42.8909 64.138 42.8669 63.574 42.8189 63.25C42.7709 62.926 42.6749 62.722 42.5309 62.638C42.3869 62.542 42.1349 62.494 41.7749 62.494C41.3909 62.494 41.1149 62.578 40.9469 62.746C40.7789 62.902 40.6709 63.154 40.6229 63.502C40.5869 63.85 40.5689 64.42 40.5689 65.212V70H38.6249V60.82H40.4069L40.4789 61.972H40.5869C40.7429 61.516 40.9949 61.186 41.3429 60.982C41.6909 60.778 42.1409 60.676 42.6929 60.676C43.2929 60.676 43.7429 60.796 44.0429 61.036C44.3549 61.264 44.5649 61.618 44.6729 62.098C44.7809 62.566 44.8349 63.214 44.8349 64.042V70H42.8909V64.942ZM48.8528 70.144C48.2288 70.144 47.7428 70.012 47.3948 69.748C47.0588 69.472 46.8188 68.998 46.6748 68.326C46.5308 67.654 46.4588 66.694 46.4588 65.446C46.4588 64.21 46.5248 63.256 46.6568 62.584C46.8008 61.9 47.0408 61.414 47.3768 61.126C47.7128 60.826 48.1928 60.676 48.8168 60.676C49.8128 60.676 50.4608 61.054 50.7608 61.81H50.8688V56.626H52.8128V70H51.0128L50.9408 68.866H50.8148C50.5628 69.718 49.9088 70.144 48.8528 70.144ZM49.6628 68.344C49.9628 68.344 50.1908 68.296 50.3468 68.2C50.5028 68.092 50.6228 67.912 50.7068 67.66C50.8148 67.276 50.8688 66.526 50.8688 65.41C50.8688 64.486 50.8388 63.844 50.7788 63.484C50.7188 63.1 50.6048 62.836 50.4368 62.692C50.2688 62.548 50.0108 62.476 49.6628 62.476C49.2548 62.476 48.9668 62.536 48.7988 62.656C48.6428 62.764 48.5348 63.01 48.4748 63.394C48.4268 63.778 48.4028 64.45 48.4028 65.41C48.4028 66.37 48.4268 67.042 48.4748 67.426C48.5348 67.81 48.6428 68.062 48.7988 68.182C48.9668 68.29 49.2548 68.344 49.6628 68.344ZM61.0903 70.144C60.5983 70.144 60.0583 70.12 59.4703 70.072C58.8823 70.024 58.3723 69.958 57.9403 69.874V68.128C58.9603 68.236 59.8183 68.29 60.5143 68.29C61.3543 68.29 61.8883 68.158 62.1163 67.894C62.2363 67.774 62.3143 67.612 62.3503 67.408C62.3863 67.192 62.4043 66.904 62.4043 66.544C62.4043 66.04 62.3743 65.68 62.3143 65.464C62.2543 65.248 62.1343 65.092 61.9543 64.996C61.7863 64.888 61.4863 64.798 61.0543 64.726L59.2723 64.42C58.6723 64.324 58.2583 64.006 58.0303 63.466C57.8143 62.926 57.7063 62.146 57.7063 61.126C57.7063 60.166 57.8443 59.422 58.1203 58.894C58.3963 58.354 58.7863 57.982 59.2903 57.778C59.7943 57.574 60.4363 57.472 61.2163 57.472C61.7203 57.472 62.2303 57.508 62.7463 57.58C63.2743 57.64 63.6943 57.712 64.0063 57.796V59.506C63.3823 59.386 62.6503 59.326 61.8103 59.326C61.3303 59.326 60.9583 59.35 60.6943 59.398C60.4303 59.446 60.2323 59.53 60.1003 59.65C59.9563 59.77 59.8603 59.932 59.8123 60.136C59.7763 60.34 59.7583 60.646 59.7583 61.054C59.7583 61.486 59.7823 61.798 59.8303 61.99C59.8783 62.17 59.9623 62.302 60.0823 62.386C60.2143 62.47 60.4303 62.536 60.7303 62.584L62.4043 62.872C62.8723 62.944 63.2503 63.082 63.5383 63.286C63.8383 63.49 64.0663 63.832 64.2223 64.312C64.3783 64.804 64.4563 65.458 64.4563 66.274C64.4563 67.342 64.3303 68.158 64.0783 68.722C63.8263 69.274 63.4603 69.652 62.9803 69.856C62.5123 70.048 61.8823 70.144 61.0903 70.144ZM68.9812 70.144C67.9852 70.144 67.2652 70.012 66.8212 69.748C66.3772 69.484 66.0892 69.04 65.9572 68.416C65.8372 67.792 65.7772 66.79 65.7772 65.41C65.7772 64.018 65.8372 63.01 65.9572 62.386C66.0892 61.762 66.3772 61.324 66.8212 61.072C67.2652 60.808 67.9852 60.676 68.9812 60.676C69.9772 60.676 70.6972 60.808 71.1412 61.072C71.5852 61.324 71.8672 61.762 71.9872 62.386C72.1192 63.01 72.1852 64.018 72.1852 65.41C72.1852 66.79 72.1192 67.792 71.9872 68.416C71.8672 69.04 71.5852 69.484 71.1412 69.748C70.6972 70.012 69.9772 70.144 68.9812 70.144ZM68.9812 68.47C69.4132 68.47 69.7072 68.41 69.8632 68.29C70.0312 68.158 70.1332 67.9 70.1692 67.516C70.2172 67.132 70.2412 66.43 70.2412 65.41C70.2412 64.378 70.2172 63.676 70.1692 63.304C70.1332 62.92 70.0312 62.668 69.8632 62.548C69.7072 62.416 69.4132 62.35 68.9812 62.35C68.5492 62.35 68.2492 62.416 68.0812 62.548C67.9252 62.668 67.8232 62.92 67.7752 63.304C67.7392 63.676 67.7212 64.378 67.7212 65.41C67.7212 66.43 67.7392 67.132 67.7752 67.516C67.8232 67.9 67.9252 68.158 68.0812 68.29C68.2492 68.41 68.5492 68.47 68.9812 68.47ZM78.5315 69.874C77.9315 70.054 77.2775 70.144 76.5695 70.144C75.6935 70.144 75.0455 69.982 74.6255 69.658C74.2055 69.334 73.9295 68.848 73.7975 68.2C73.6655 67.552 73.5995 66.622 73.5995 65.41C73.5995 64.198 73.6715 63.262 73.8155 62.602C73.9715 61.942 74.2595 61.456 74.6795 61.144C75.0995 60.832 75.7235 60.676 76.5515 60.676C76.9115 60.676 77.2715 60.7 77.6315 60.748C77.9915 60.796 78.2735 60.862 78.4775 60.946V62.494C77.9735 62.398 77.5055 62.35 77.0735 62.35C76.6055 62.35 76.2695 62.422 76.0655 62.566C75.8615 62.698 75.7235 62.968 75.6515 63.376C75.5795 63.784 75.5435 64.462 75.5435 65.41C75.5435 66.358 75.5795 67.042 75.6515 67.462C75.7235 67.87 75.8615 68.14 76.0655 68.272C76.2695 68.404 76.6055 68.47 77.0735 68.47C77.5415 68.47 78.0275 68.422 78.5315 68.326V69.874ZM79.9858 58.606V56.626H81.9658V58.606H79.9858ZM80.0038 70V60.82H81.9478V70H80.0038ZM85.5454 70.144C84.7894 70.144 84.2434 69.928 83.9074 69.496C83.5834 69.064 83.4214 68.368 83.4214 67.408C83.4214 66.7 83.4934 66.142 83.6374 65.734C83.7814 65.326 84.0154 65.032 84.3394 64.852C84.6754 64.672 85.1374 64.582 85.7254 64.582C86.1814 64.582 86.8174 64.606 87.6334 64.654V64.204C87.6334 63.616 87.5854 63.196 87.4894 62.944C87.4054 62.692 87.2494 62.53 87.0214 62.458C86.8054 62.386 86.4394 62.35 85.9234 62.35C85.4074 62.35 84.7174 62.398 83.8534 62.494V60.964C84.6934 60.772 85.5694 60.676 86.4814 60.676C87.3454 60.676 87.9934 60.79 88.4254 61.018C88.8694 61.246 89.1694 61.618 89.3254 62.134C89.4934 62.638 89.5774 63.364 89.5774 64.312V70H87.7774L87.7054 68.866H87.5974C87.3094 69.718 86.6254 70.144 85.5454 70.144ZM86.3914 68.38C86.6194 68.38 86.8114 68.356 86.9674 68.308C87.1234 68.26 87.2614 68.164 87.3814 68.02C87.5494 67.792 87.6334 67.288 87.6334 66.508V66.022H86.2834C86.0194 66.022 85.8214 66.052 85.6894 66.112C85.5694 66.172 85.4794 66.286 85.4194 66.454C85.3714 66.622 85.3474 66.88 85.3474 67.228C85.3474 67.696 85.4134 68.008 85.5454 68.164C85.6774 68.308 85.9594 68.38 86.3914 68.38ZM91.4472 70V56.626H93.3912V70H91.4472ZM101.661 70.144C101.169 70.144 100.629 70.12 100.041 70.072C99.4526 70.024 98.9426 69.958 98.5106 69.874V68.128C99.5306 68.236 100.389 68.29 101.085 68.29C101.925 68.29 102.459 68.158 102.687 67.894C102.807 67.774 102.885 67.612 102.921 67.408C102.957 67.192 102.975 66.904 102.975 66.544C102.975 66.04 102.945 65.68 102.885 65.464C102.825 65.248 102.705 65.092 102.525 64.996C102.357 64.888 102.057 64.798 101.625 64.726L99.8426 64.42C99.2426 64.324 98.8286 64.006 98.6006 63.466C98.3846 62.926 98.2766 62.146 98.2766 61.126C98.2766 60.166 98.4146 59.422 98.6906 58.894C98.9666 58.354 99.3566 57.982 99.8606 57.778C100.365 57.574 101.007 57.472 101.787 57.472C102.291 57.472 102.801 57.508 103.317 57.58C103.845 57.64 104.265 57.712 104.577 57.796V59.506C103.953 59.386 103.221 59.326 102.381 59.326C101.901 59.326 101.529 59.35 101.265 59.398C101.001 59.446 100.803 59.53 100.671 59.65C100.527 59.77 100.431 59.932 100.383 60.136C100.347 60.34 100.329 60.646 100.329 61.054C100.329 61.486 100.353 61.798 100.401 61.99C100.449 62.17 100.533 62.302 100.653 62.386C100.785 62.47 101.001 62.536 101.301 62.584L102.975 62.872C103.443 62.944 103.821 63.082 104.109 63.286C104.409 63.49 104.637 63.832 104.793 64.312C104.949 64.804 105.027 65.458 105.027 66.274C105.027 67.342 104.901 68.158 104.649 68.722C104.397 69.274 104.031 69.652 103.551 69.856C103.083 70.048 102.453 70.144 101.661 70.144ZM111.28 69.874C110.68 70.054 110.026 70.144 109.318 70.144C108.442 70.144 107.794 69.982 107.374 69.658C106.954 69.334 106.678 68.848 106.546 68.2C106.414 67.552 106.348 66.622 106.348 65.41C106.348 64.198 106.42 63.262 106.564 62.602C106.72 61.942 107.008 61.456 107.428 61.144C107.848 60.832 108.472 60.676 109.3 60.676C109.66 60.676 110.02 60.7 110.38 60.748C110.74 60.796 111.022 60.862 111.226 60.946V62.494C110.722 62.398 110.254 62.35 109.822 62.35C109.354 62.35 109.018 62.422 108.814 62.566C108.61 62.698 108.472 62.968 108.4 63.376C108.328 63.784 108.292 64.462 108.292 65.41C108.292 66.358 108.328 67.042 108.4 67.462C108.472 67.87 108.61 68.14 108.814 68.272C109.018 68.404 109.354 68.47 109.822 68.47C110.29 68.47 110.776 68.422 111.28 68.326V69.874ZM112.734 58.606V56.626H114.714V58.606H112.734ZM112.752 70V60.82H114.696V70H112.752ZM122.559 66.076H118.293C118.293 66.856 118.329 67.402 118.401 67.714C118.473 68.014 118.629 68.218 118.869 68.326C119.109 68.422 119.529 68.47 120.129 68.47C120.705 68.47 121.443 68.422 122.343 68.326V69.856C122.043 69.94 121.641 70.006 121.137 70.054C120.645 70.114 120.165 70.144 119.697 70.144C118.689 70.144 117.945 69.994 117.465 69.694C116.997 69.382 116.691 68.914 116.547 68.29C116.415 67.654 116.349 66.7 116.349 65.428C116.349 64.168 116.415 63.22 116.547 62.584C116.679 61.948 116.973 61.474 117.429 61.162C117.885 60.838 118.599 60.676 119.571 60.676C120.531 60.676 121.215 60.832 121.623 61.144C122.043 61.444 122.301 61.9 122.397 62.512C122.505 63.112 122.559 64.078 122.559 65.41V66.076ZM119.535 62.35C119.163 62.35 118.893 62.404 118.725 62.512C118.557 62.62 118.443 62.824 118.383 63.124C118.335 63.424 118.305 63.928 118.293 64.636H120.705V64.618C120.705 63.922 120.675 63.418 120.615 63.106C120.555 62.794 120.447 62.59 120.291 62.494C120.135 62.398 119.883 62.35 119.535 62.35ZM128.514 64.942C128.514 64.138 128.49 63.574 128.442 63.25C128.394 62.926 128.298 62.722 128.154 62.638C128.01 62.542 127.758 62.494 127.398 62.494C127.014 62.494 126.738 62.578 126.57 62.746C126.402 62.902 126.294 63.154 126.246 63.502C126.21 63.85 126.192 64.42 126.192 65.212V70H124.248V60.82H126.03L126.102 61.972H126.21C126.366 61.516 126.618 61.186 126.966 60.982C127.314 60.778 127.764 60.676 128.316 60.676C128.916 60.676 129.366 60.796 129.666 61.036C129.978 61.264 130.188 61.618 130.296 62.098C130.404 62.566 130.458 63.214 130.458 64.042V70H128.514V64.942ZM137.014 69.874C136.414 70.054 135.76 70.144 135.052 70.144C134.176 70.144 133.528 69.982 133.108 69.658C132.688 69.334 132.412 68.848 132.28 68.2C132.148 67.552 132.082 66.622 132.082 65.41C132.082 64.198 132.154 63.262 132.298 62.602C132.454 61.942 132.742 61.456 133.162 61.144C133.582 60.832 134.206 60.676 135.034 60.676C135.394 60.676 135.754 60.7 136.114 60.748C136.474 60.796 136.756 60.862 136.96 60.946V62.494C136.456 62.398 135.988 62.35 135.556 62.35C135.088 62.35 134.752 62.422 134.548 62.566C134.344 62.698 134.206 62.968 134.134 63.376C134.062 63.784 134.026 64.462 134.026 65.41C134.026 66.358 134.062 67.042 134.134 67.462C134.206 67.87 134.344 68.14 134.548 68.272C134.752 68.404 135.088 68.47 135.556 68.47C136.024 68.47 136.51 68.422 137.014 68.326V69.874ZM144.444 66.076H140.178C140.178 66.856 140.214 67.402 140.286 67.714C140.358 68.014 140.514 68.218 140.754 68.326C140.994 68.422 141.414 68.47 142.014 68.47C142.59 68.47 143.328 68.422 144.228 68.326V69.856C143.928 69.94 143.526 70.006 143.022 70.054C142.53 70.114 142.05 70.144 141.582 70.144C140.574 70.144 139.83 69.994 139.35 69.694C138.882 69.382 138.576 68.914 138.432 68.29C138.3 67.654 138.234 66.7 138.234 65.428C138.234 64.168 138.3 63.22 138.432 62.584C138.564 61.948 138.858 61.474 139.314 61.162C139.77 60.838 140.484 60.676 141.456 60.676C142.416 60.676 143.1 60.832 143.508 61.144C143.928 61.444 144.186 61.9 144.282 62.512C144.39 63.112 144.444 64.078 144.444 65.41V66.076ZM141.42 62.35C141.048 62.35 140.778 62.404 140.61 62.512C140.442 62.62 140.328 62.824 140.268 63.124C140.22 63.424 140.19 63.928 140.178 64.636H142.59V64.618C142.59 63.922 142.56 63.418 142.5 63.106C142.44 62.794 142.332 62.59 142.176 62.494C142.02 62.398 141.768 62.35 141.42 62.35ZM148.545 70.144C148.149 70.144 147.705 70.12 147.213 70.072C146.733 70.024 146.313 69.964 145.953 69.892V68.326C146.817 68.422 147.543 68.47 148.131 68.47C148.503 68.47 148.779 68.44 148.959 68.38C149.139 68.308 149.259 68.2 149.319 68.056C149.379 67.912 149.409 67.696 149.409 67.408C149.409 67.072 149.391 66.838 149.355 66.706C149.319 66.562 149.253 66.466 149.157 66.418C149.061 66.358 148.893 66.31 148.653 66.274L147.051 66.04C146.559 65.968 146.217 65.74 146.025 65.356C145.833 64.972 145.737 64.33 145.737 63.43C145.737 62.398 145.983 61.684 146.475 61.288C146.967 60.88 147.693 60.676 148.653 60.676C149.049 60.676 149.457 60.706 149.877 60.766C150.309 60.814 150.657 60.88 150.921 60.964V62.512C150.249 62.404 149.577 62.35 148.905 62.35C148.437 62.35 148.113 62.422 147.933 62.566C147.765 62.698 147.681 62.974 147.681 63.394C147.681 63.694 147.693 63.91 147.717 64.042C147.753 64.174 147.813 64.27 147.897 64.33C147.993 64.378 148.149 64.414 148.365 64.438L149.733 64.618C150.081 64.666 150.369 64.762 150.597 64.906C150.825 65.05 151.005 65.308 151.137 65.68C151.269 66.052 151.335 66.58 151.335 67.264C151.335 68.356 151.107 69.112 150.651 69.532C150.207 69.94 149.505 70.144 148.545 70.144Z" fill="white"/>
<defs>
<clipPath id="clip0_2_7">
<rect width="120" height="32" fill="white" transform="translate(16)"/>
</clipPath>
</defs>
</svg>
