<svg version="1.1" xmlns="http://www.w3.org/2000/svg" x="0px" y="0px" viewBox="0 0 26 18" enable-background="new 0 0 26 18" width="26" height="18"><path fill="#FFFFFF" fill-rule="evenodd" clip-rule="evenodd" d=" M10.2,12.6V5.3l6.9,3.5L10.2,12.6z M25.5,3.9c0,0-0.3-1.7-1.1-2.5c-1-1.1-2.1-1.1-2.6-1.1c-3.5-0.3-9-0.3-9-0.3s-5.4,0-9,0.3 c-0.6,0-1.6,0-2.7,1.1c-0.8,0.8-1,2.5-1,2.5S0,5.9,0,8V10c0,2,0.3,4.2,0.3,4.2s0.3,1.7,1.1,2.5c1,1.1,2.3,1,2.9,1.1 C6.3,17.9,13,18,13,18s5.4,0,9.1-0.3c0.5-0.1,1.6-0.1,2.6-1.1c0.8-0.8,1.1-2.5,1.1-2.5s0.3-2,0.3-4.2V8C25.8,5.9,25.5,3.9,25.5,3.9z "></path></svg>